<svg width="35" height="36" viewBox="0 0 35 36" fill="none" xmlns="http://www.w3.org/2000/svg">
<path d="M26.369 6.80292C26.1808 6.60926 25.9221 6.5 25.652 6.5C25.3819 6.5 25.1233 6.60926 24.935 6.80292L17.5 14.4504L10.0649 6.80292C9.87659 6.60926 9.61798 6.5 9.34788 6.5C9.07778 6.5 8.81916 6.60926 8.63088 6.80292L6.57463 8.91792C6.19729 9.30604 6.19729 9.92396 6.57463 10.3121L14.049 18L6.57463 25.6879C6.19729 26.076 6.19729 26.694 6.57463 27.0821L8.63088 29.1971C8.81916 29.3907 9.07778 29.5 9.34788 29.5C9.61798 29.5 9.87659 29.3907 10.0649 29.1971L17.5 21.5496L24.935 29.1971C25.1233 29.3907 25.3819 29.5 25.652 29.5C25.9221 29.5 26.1808 29.3907 26.369 29.1971L28.4253 27.0821C28.8026 26.694 28.8026 26.076 28.4253 25.6879L20.9509 18L28.4253 10.3121C28.8026 9.92396 28.8026 9.30604 28.4253 8.91792L26.369 6.80292Z" fill="#EE5E1A" stroke="#EE5E1A" stroke-width="2" stroke-linejoin="round"/>
</svg>
